<?xml version="1.0" encoding="UTF-8"?>
<svg width="200" height="200" viewBox="0 0 200 200" xmlns="http://www.w3.org/2000/svg">
    <!-- Car Body -->
    <path d="M40 120 C40 120, 60 120, 80 120 C100 120, 120 120, 140 120 C160 120, 180 120, 180 120 C180 120, 180 100, 180 100 C180 100, 160 100, 140 100 C120 100, 100 100, 80 100 C60 100, 40 100, 40 100 Z" fill="#1a1a1a"/>
    
    <!-- Car Windows -->
    <path d="M60 100 L80 100 L80 90 L60 90 Z" fill="#3498db"/>
    <path d="M100 100 L120 100 L120 90 L100 90 Z" fill="#3498db"/>
    
    <!-- Car Wheels -->
    <circle cx="70" cy="120" r="15" fill="#333"/>
    <circle cx="130" cy="120" r="15" fill="#333"/>
    <circle cx="70" cy="120" r="8" fill="#666"/>
    <circle cx="130" cy="120" r="8" fill="#666"/>
    
    <!-- Bike Frame -->
    <path d="M40 60 L80 60 L100 40 L120 60 L160 60" stroke="#1a1a1a" stroke-width="8" fill="none"/>
    
    <!-- Bike Wheels -->
    <circle cx="60" cy="60" r="20" stroke="#1a1a1a" stroke-width="8" fill="none"/>
    <circle cx="140" cy="60" r="20" stroke="#1a1a1a" stroke-width="8" fill="none"/>
    
    <!-- Bike Spokes -->
    <line x1="60" y1="40" x2="60" y2="80" stroke="#1a1a1a" stroke-width="2"/>
    <line x1="40" y1="60" x2="80" y2="60" stroke="#1a1a1a" stroke-width="2"/>
    <line x1="140" y1="40" x2="140" y2="80" stroke="#1a1a1a" stroke-width="2"/>
    <line x1="120" y1="60" x2="160" y2="60" stroke="#1a1a1a" stroke-width="2"/>
    
    <!-- Bike Seat -->
    <path d="M100 40 L110 40 L110 45 L100 45 Z" fill="#1a1a1a"/>
    
    <!-- Bike Handlebars -->
    <path d="M40 60 L30 50 M40 60 L30 70" stroke="#1a1a1a" stroke-width="4"/>
</svg> 